<svg height="110" viewBox="0 0 110 110" width="110" xmlns="http://www.w3.org/2000/svg"><path d="m38.469002 20v11.938004h3.125v-11.938004zm-13.813002 3.405998-2.656 1.655998 6.312 10.126008 2.657-1.657006zm30.938002.313004-4.719002 8.530998c-2.986.663002-5.776001 1.864998-8.25 3.5-.847-.119003-1.715-.188004-2.594002-.188004-10.674997 0-19.311998 8.695008-19.311998 19.407006 0 1.946998.305 3.824997.843 5.592998-.978 1.235001-1.774999 2.641999-2.312 4.157002l-.688-1.063004-10.062 6.344002.343801.561996c-2.376601 2.331002-3.843801 5.561005-3.843801 9.126008 0 3.519996 1.6295 6.438995 4.093801 8.092994 2.4642 1.654 5.540099 2.219002 8.718199 2.219002h20.468998 3.125 9.125 17.844002 16.375c11.150002 0 20.25-9.098 20.25-20.25s-9.098999-20.219002-20.25-20.219002c-1.607002 0-3.124001.264-4.594002.625-2.865997-10.607002-12.410995-18.5-23.905998-18.5-.499001 0-.977001.034004-1.469002.063004l3.563004-6.469002zm-44.532002 11.375-1.531299 2.75 10.406999 5.780998 1.5-2.75-10.376-5.780998zm45.188 1.344002c10.088005 0 18.319 7.376998 19.844002 17.030998l.467994 2.905998 2.75-1.030998c1.734002-.658001 3.538002-1.063004 5.438004-1.063004 8.580002 0 15.5 6.890003 15.5 15.469002 0 8.579002-6.920998 15.5-15.5 15.5h-16.375-17.844002-32.718998c-2.576 0-4.757-.529999-6.062-1.405998-1.304999-.876-2-1.922005-2-4.155998 0-4.463006 3.5946-8.032006 8.062-8.032006.74 0 1.486.127999 2.313.375l3.063.938004v-3.219002c0-.288002.007-.458 0-.5.132999-5.301998 4.412-9.5 9.75-9.5-.077999 0 .118.026001.656002.062l2.655998.188-.125-2.655998c-.028999-.651001-.063-.871002-.063-.719002 0-11.178001 9.001999-20.186996 20.188-20.186996zm-51.25 16.061996v3.125h11.906v-3.125z" fill="#fff"/></svg>